<svg width="16" height="16" viewBox="0 0 16 16" fill="none" xmlns="http://www.w3.org/2000/svg">
<g id="Icon">
<path id="Vector" d="M13.25 7.25H8.75V2.75C8.75 2.55109 8.67098 2.36032 8.53033 2.21967C8.38968 2.07902 8.19891 2 8 2C7.80109 2 7.61032 2.07902 7.46967 2.21967C7.32902 2.36032 7.25 2.55109 7.25 2.75V7.25H2.75C2.55109 7.25 2.36032 7.32902 2.21967 7.46967C2.07902 7.61032 2 7.80109 2 8C2 8.19891 2.07902 8.38968 2.21967 8.53033C2.36032 8.67098 2.55109 8.75 2.75 8.75H7.25V13.25C7.25 13.4489 7.32902 13.6397 7.46967 13.7803C7.61032 13.921 7.80109 14 8 14C8.19891 14 8.38968 13.921 8.53033 13.7803C8.67098 13.6397 8.75 13.4489 8.75 13.25V8.75H13.25C13.4489 8.75 13.6397 8.67098 13.7803 8.53033C13.921 8.38968 14 8.19891 14 8C14 7.80109 13.921 7.61032 13.7803 7.46967C13.6397 7.32902 13.4489 7.25 13.25 7.25Z" fill="#FAFAFA"/>
</g>
</svg>
