<?xml version="1.0" encoding="UTF-8" standalone="no"?>
<!DOCTYPE svg PUBLIC "-//W3C//DTD SVG 1.1//EN" "http://www.w3.org/Graphics/SVG/1.1/DTD/svg11.dtd">
<svg width="100%" height="100%" viewBox="0 0 1000 1000" version="1.1" style="fill-rule:evenodd;clip-rule:evenodd;stroke-linejoin:round;stroke-miterlimit:2;">
    <rect id="Artboard1" x="0" y="0" width="1000" height="1000" style="fill:none;"/>
    <clipPath id="_clip1">
        <rect id="Artboard11" x="0" y="0" width="1000" height="1000"/>
    </clipPath>
    <g clip-path="url(#_clip1)">
        <g transform="matrix(1.18863,0,0,1.58085,534.854,-249.64)">
            <path d="M676.64,202.878C676.64,178.063 652.172,157.916 622.035,157.916L112.903,157.916C71.579,157.916 29.211,191.995 29.211,227.273C29.211,745.526 29.211,706.831 29.211,726.179C29.211,761.456 76.054,790.489 111.785,790.489L622.035,790.489C652.172,790.489 676.64,770.342 676.64,745.526L676.64,202.878ZM113.342,233.5L113.342,725.42L579.923,725.42L579.923,233.5L113.342,233.5Z" style="fill:white;"/>
        </g>
        <g transform="matrix(-1.18863,0,0,1.58085,465.146,-249.64)">
            <path d="M676.64,202.878C676.64,178.063 652.172,157.916 622.035,157.916L112.903,157.916C71.579,157.916 29.211,191.995 29.211,227.273C29.211,745.526 29.211,706.831 29.211,726.179C29.211,761.456 76.054,790.489 111.785,790.489L622.035,790.489C652.172,790.489 676.64,770.342 676.64,745.526L676.64,202.878ZM113.342,233.5L113.342,725.42L579.923,725.42L579.923,233.5L113.342,233.5Z" style="fill:white;"/>
        </g>
    </g>
</svg>
