<svg width="16" height="16" viewBox="0 0 16 16" fill="none" xmlns="http://www.w3.org/2000/svg">
<path d="M13.9999 5.99691C14.0004 6.12495 13.9721 6.25146 13.9172 6.36715C13.8624 6.48283 13.7823 6.58475 13.6828 6.66542L8.54046 10.805C8.3871 10.9311 8.19474 11 7.99622 11C7.7977 11 7.60534 10.9311 7.45199 10.805L2.30962 6.51972C2.13459 6.37424 2.02452 6.1652 2.00363 5.93857C1.98273 5.71194 2.05272 5.48629 2.1982 5.31126C2.34367 5.13623 2.55272 5.02617 2.77935 5.00527C3.00598 4.98438 3.23163 5.05437 3.40665 5.19984L8.00051 9.03091L12.5944 5.3284C12.7202 5.2236 12.8734 5.15702 13.0358 5.13656C13.1983 5.11609 13.3632 5.14259 13.5111 5.21292C13.6589 5.28324 13.7835 5.39446 13.8702 5.53339C13.9568 5.67233 14.0019 5.83318 13.9999 5.99691V5.99691Z" fill="#FAFAFA"/>
</svg>
