<svg width="100%" height="100%" viewBox="0 0 1000 1000" version="1.1" style="fill-rule:evenodd;clip-rule:evenodd;stroke-linejoin:round;stroke-miterlimit:2;">
    <g transform="matrix(2.01971,0,0,2.01971,-483.427,-311.625)">
        <path d="M474.588,181.833C476.094,176.427 481.146,172.672 486.915,172.672C492.683,172.672 497.735,176.427 499.241,181.833L545.208,346.846L721.066,338.295C726.827,338.015 732.066,341.52 733.849,346.846C735.631,352.172 733.514,357.997 728.684,361.057L581.235,454.491L643.954,614.219C646.009,619.452 644.195,625.372 639.528,628.664C634.862,631.956 628.501,631.801 624.01,628.287L486.915,521.019L349.819,628.287C345.328,631.801 338.968,631.956 334.301,628.664C329.634,625.372 327.82,619.452 329.875,614.219L392.594,454.491L245.145,361.057C240.315,357.997 238.198,352.172 239.981,346.846C241.763,341.52 247.002,338.015 252.764,338.295L428.621,346.846L474.588,181.833Z" style="fill:rgb(242,175,13);"/>
    </g>
</svg>
