<?xml version="1.0" encoding="UTF-8" standalone="no"?>
<!DOCTYPE svg PUBLIC "-//W3C//DTD SVG 1.1//EN" "http://www.w3.org/Graphics/SVG/1.1/DTD/svg11.dtd">
<svg width="100%" height="100%" viewBox="0 0 1000 1000" version="1.1" style="fill-rule:evenodd;clip-rule:evenodd;stroke-linejoin:round;stroke-miterlimit:2;">
    <rect id="Artboard1" x="0" y="0" width="1000" height="1000" style="fill:none;"/>
    <g id="Artboard11">
        <g transform="matrix(1.25837,0,0,1,-109.772,-169.149)">
            <path d="M881.915,209.574C881.915,187.263 867.52,169.149 849.789,169.149L119.359,169.149C101.629,169.149 87.234,187.263 87.234,209.574L87.234,290.426C87.234,312.737 101.629,330.851 119.359,330.851L849.789,330.851C867.52,330.851 881.915,312.737 881.915,290.426L881.915,209.574Z" style="fill:white;"/>
        </g>
        <g transform="matrix(1.25837,0,0,1,-109.772,389.716)">
            <path d="M881.915,209.574C881.915,187.263 867.52,169.149 849.789,169.149L119.359,169.149C101.629,169.149 87.234,187.263 87.234,209.574L87.234,290.426C87.234,312.737 101.629,330.851 119.359,330.851L849.789,330.851C867.52,330.851 881.915,312.737 881.915,290.426L881.915,209.574Z" style="fill:white;"/>
        </g>
        <g transform="matrix(1.25837,0,0,1,-109.772,669.149)">
            <path d="M881.915,209.574C881.915,187.263 867.52,169.149 849.789,169.149L119.359,169.149C101.629,169.149 87.234,187.263 87.234,209.574L87.234,290.426C87.234,312.737 101.629,330.851 119.359,330.851L849.789,330.851C867.52,330.851 881.915,312.737 881.915,290.426L881.915,209.574Z" style="fill:white;"/>
        </g>
        <g transform="matrix(1.25837,0,0,1,-109.772,110.284)">
            <path d="M881.915,209.574C881.915,187.263 867.52,169.149 849.789,169.149L119.359,169.149C101.629,169.149 87.234,187.263 87.234,209.574L87.234,290.426C87.234,312.737 101.629,330.851 119.359,330.851L849.789,330.851C867.52,330.851 881.915,312.737 881.915,290.426L881.915,209.574Z" style="fill:white;"/>
        </g>
    </g>
</svg>
