<?xml version="1.0" encoding="UTF-8" standalone="no"?>
<!DOCTYPE svg PUBLIC "-//W3C//DTD SVG 1.1//EN" "http://www.w3.org/Graphics/SVG/1.1/DTD/svg11.dtd">
<svg width="100%" height="100%" viewBox="0 0 1000 1000" version="1.1" style="fill-rule:evenodd;clip-rule:evenodd;stroke-linejoin:round;stroke-miterlimit:2;">
    <path d="M73.844,335.055L73.844,937.266C73.844,971.89 103.642,1000 140.345,1000L384.885,1000L384.885,711.335C384.885,687.266 405.6,667.725 431.114,667.725L566.85,667.725C592.365,667.725 613.079,687.266 613.079,711.335L613.079,1000L857.619,1000C894.322,1000 924.12,971.89 924.12,937.266L924.12,335.055L957.01,335.055C996.315,335.055 1014.17,290.162 986.886,257.953L546.498,18.235C521.242,-6.172 482.912,-6.082 457.869,18.53L17.805,257.935C-15.773,290.383 0.321,335.055 47.808,335.055L73.844,335.055ZM681.914,313.74C681.989,314.252 682.12,315.277 682.12,316.172C682.12,326.869 672.889,358.138 654.053,414.888C632.261,346.161 626.066,325.509 626.066,319.951C626.066,319.051 625.844,318.177 626.307,317.493C626.691,316.925 627.524,316.78 628.656,316.461C630.504,315.939 632.868,315.61 635.876,315.435C639.842,315.205 642.941,311.921 642.941,307.948L642.941,303.945C642.941,301.934 642.133,300.007 640.699,298.597C639.265,297.187 637.324,296.412 635.313,296.446C622.272,296.669 620.283,296.891 607.463,296.891C594.184,296.891 580.462,296.669 567.625,296.446C565.614,296.412 563.673,297.186 562.238,298.596C560.803,300.006 559.995,301.934 559.995,303.945L559.995,307.948C559.995,311.861 563.003,315.116 566.904,315.424C580.654,316.511 584.392,325.721 590.181,342.022C607.049,389.57 618.368,426.454 637.677,482.445C638.773,485.624 641.851,487.685 645.208,487.487L652.757,487.042C655.54,486.879 658.001,485.186 659.15,482.646C676.66,443.935 691.793,395.059 703.426,361.122C715.884,398.908 726.402,436.993 742.036,482.44C743.131,485.621 746.211,487.685 749.569,487.487L757.119,487.042C759.905,486.878 762.37,485.181 763.516,482.636C793.928,415.126 819.811,332.142 825.369,323.36C827.791,319.648 830.768,316.071 839.766,314.945C843.519,314.475 846.335,311.285 846.335,307.503L846.335,303.945C846.335,301.93 845.524,300 844.085,298.589C842.645,297.178 840.699,296.406 838.684,296.447C827.628,296.669 814.139,296.891 802.197,296.891C789.815,296.891 786.056,296.669 772.567,296.446C770.557,296.413 768.617,297.189 767.184,298.599C765.751,300.008 764.943,301.935 764.943,303.945L764.943,307.948C764.943,312.015 768.185,315.341 772.251,315.445C776.55,315.556 779.898,316.022 782.467,316.856C785.445,317.822 786.704,319.303 786.704,321.285C786.704,331.923 777.373,358.963 758.689,414.265C739.823,351.66 730.427,328.671 730.427,315.506C730.427,314.672 730.485,313.604 730.528,312.966C732.928,311.653 734.424,309.133 734.424,306.392L734.424,303.945C734.424,299.803 731.066,296.445 726.924,296.445L684.291,296.445C680.149,296.445 676.791,299.803 676.791,303.945L676.791,306.169C676.791,308.281 677.681,310.295 679.243,311.716C679.989,312.395 681.275,313.302 681.914,313.74ZM372.327,485.487C376.28,485.24 379.359,481.962 379.359,478.002L379.359,335.168C379.359,326.298 380.178,321.48 383.111,318.876C386.187,316.145 390.741,315.991 396.038,315.052C399.62,314.417 402.229,311.304 402.229,307.667L402.229,304.119C402.229,299.976 398.872,296.619 394.729,296.619C383.627,296.619 374.079,296.84 362.991,296.84C351.901,296.84 342.129,296.619 331.024,296.619C326.882,296.619 323.524,299.976 323.524,304.119L323.524,307.667C323.524,311.288 326.111,314.392 329.673,315.044C334.804,315.984 339.355,316.263 342.476,319.038C345.444,321.678 346.401,326.479 346.401,335.168C346.401,335.168 346.401,410.894 346.401,410.894C313.197,374.69 256.514,311.874 235.432,289.643C217.563,270.796 201.638,260.474 188.477,260.474C178.256,260.474 163.006,268.734 155.206,278.938C154.207,280.246 153.665,281.847 153.665,283.493L153.665,287.041C153.665,289.394 154.769,291.611 156.648,293.028C158.526,294.445 160.96,294.899 163.223,294.253C165.612,293.571 167.828,293.21 170.047,293.21C175.404,293.21 181.153,295.304 187.144,298.647C196.769,304.017 206.79,312.602 216.504,322.649C216.504,322.649 216.504,443.843 216.504,443.843C216.504,452.714 215.685,457.532 212.752,460.136C209.676,462.867 205.122,463.021 199.824,463.959C196.243,464.594 193.633,467.707 193.633,471.344L193.633,474.893C193.633,478.977 196.9,482.31 200.983,482.391C212.138,482.615 221.731,482.393 232.872,482.393C232.922,482.393 232.972,482.392 233.022,482.391C244.059,482.171 253.785,482.393 264.838,482.393C268.98,482.393 272.338,479.035 272.338,474.893L272.338,471.344C272.338,467.723 269.751,464.619 266.189,463.967C261.059,463.028 256.507,462.748 253.386,459.973C250.418,457.334 249.462,452.532 249.462,443.843L249.462,362.295C285.585,402.997 322.2,438.52 358.973,483.211C360.502,485.07 362.831,486.081 365.233,485.931L372.327,485.487ZM493.762,399.792C501.815,399.792 508.177,399.839 513.002,400.716C515.201,401.115 516.968,401.551 518.159,402.656C519.096,403.525 519.416,404.837 519.625,406.534C520.086,410.294 523.28,413.12 527.069,413.12L530.177,413.12C532.193,413.12 534.124,412.308 535.535,410.869C536.945,409.429 537.717,407.482 537.676,405.467C537.455,394.662 537.455,389.156 537.455,384.756C537.455,380.352 537.455,373.961 537.676,362.706C537.715,360.692 536.943,358.746 535.532,357.308C534.122,355.869 532.192,355.059 530.177,355.059L527.069,355.059C523.206,355.059 519.975,357.992 519.604,361.837C519.41,363.843 519.127,365.362 518.133,366.358C517.033,367.46 515.36,367.84 513.279,368.212C508.438,369.077 501.997,369.054 493.762,369.054L478.169,369.054C478.169,369.054 478.169,342.787 478.169,342.787C478.169,338.524 478.292,335.064 478.751,332.26C479.032,330.544 479.347,329.174 480.1,328.165C481.152,326.754 482.997,326.431 485.541,326.017C490.222,325.254 496.554,325.184 505.086,325.184C516.565,325.184 523.375,327.015 527.794,330.729C532.261,334.484 534.172,339.842 536.567,345.647C537.82,348.686 540.906,350.554 544.18,350.257L546.622,350.034C550.6,349.673 553.596,346.257 553.437,342.266C553.218,336.797 552.777,328.703 552.777,323.016C552.777,316.94 553.187,308.947 554.028,303.268C554.384,300.864 553.553,298.437 551.799,296.755C550.045,295.073 547.585,294.346 545.198,294.803C534.993,296.757 517.402,296.889 482.66,296.889C466.26,296.889 439.239,296.89 422.613,296.668C420.607,296.641 418.673,297.42 417.245,298.829C415.817,300.238 415.013,302.161 415.013,304.167L415.013,307.713C415.013,311.504 417.842,314.699 421.605,315.158C427.337,315.857 431.189,316.864 433.559,319.326C435.101,320.928 435.818,323.108 436.328,325.816C437.077,329.791 437.218,334.658 437.218,340.566L437.218,439.162C437.218,445.076 437.075,449.965 436.326,453.976C435.808,456.747 435.07,458.988 433.503,460.65C431.129,463.17 427.267,464.257 421.524,465.022C417.797,465.518 415.013,468.697 415.013,472.456L415.013,475.559C415.013,477.58 415.828,479.515 417.275,480.927C418.721,482.338 420.676,483.106 422.696,483.057C440.851,482.614 468.281,482.393 486.434,482.393C514.81,482.393 533.225,482.307 545.138,484.69C547.104,485.083 549.145,484.673 550.807,483.551C552.468,482.429 553.611,480.688 553.98,478.718C555.867,468.657 559.804,453.971 565.253,443.492C567.083,439.974 565.858,435.64 562.458,433.601L560.238,432.268C556.908,430.271 552.605,431.144 550.318,434.282C545.968,440.25 542.433,445.094 536.214,448.289C529.647,451.663 520.368,453.21 505.086,453.21C496.961,453.21 490.84,453.123 486.23,452.596C483.277,452.257 481.191,451.989 479.856,450.909C478.998,450.215 478.903,449.072 478.678,447.641C478.152,444.299 478.169,439.944 478.169,434.275L478.169,399.792C478.169,399.792 493.762,399.792 493.762,399.792Z" style="fill:white;"/>
</svg>
