<svg width="16" height="16" viewBox="0 0 16 16" fill="none" xmlns="http://www.w3.org/2000/svg">
<path d="M12.6667 1H3.33333C2.71449 1 2.121 1.24583 1.68342 1.68342C1.24583 2.121 1 2.71449 1 3.33333V12.6667C1 13.2855 1.24583 13.879 1.68342 14.3166C2.121 14.7542 2.71449 15 3.33333 15H12.6667C13.2855 15 13.879 14.7542 14.3166 14.3166C14.7542 13.879 15 13.2855 15 12.6667V3.33333C15 2.71449 14.7542 2.121 14.3166 1.68342C13.879 1.24583 13.2855 1 12.6667 1ZM3.33333 2.55556H12.6667C12.8729 2.55556 13.0708 2.6375 13.2166 2.78336C13.3625 2.92922 13.4444 3.12705 13.4444 3.33333V9.83556L10.9556 7.71222C10.5699 7.39492 10.0861 7.22144 9.58667 7.22144C9.08728 7.22144 8.6034 7.39492 8.21778 7.71222L2.55556 12.4333V3.33333C2.55556 3.12705 2.6375 2.92922 2.78336 2.78336C2.92922 2.6375 3.12705 2.55556 3.33333 2.55556Z" fill="#FAFAFA"/>
<path d="M3.88883 5.44443C4.53317 5.44443 5.0555 4.9221 5.0555 4.27777C5.0555 3.63343 4.53317 3.1111 3.88883 3.1111C3.2445 3.1111 2.72217 3.63343 2.72217 4.27777C2.72217 4.9221 3.2445 5.44443 3.88883 5.44443Z" fill="#FAFAFA"/>
</svg>
