<svg width="16" height="17" viewBox="0 0 16 17" fill="none" xmlns="http://www.w3.org/2000/svg">
<path d="M13.4681 13.8523L11.2015 11.5923C11.9328 10.6606 12.3296 9.51002 12.3281 8.32558C12.3281 7.27075 12.0153 6.23961 11.4293 5.36254C10.8433 4.48548 10.0103 3.80189 9.03577 3.39823C8.06123 2.99456 6.98887 2.88894 5.95431 3.09473C4.91974 3.30052 3.96943 3.80847 3.22355 4.55435C2.47767 5.30023 1.96972 6.25054 1.76393 7.2851C1.55815 8.31967 1.66376 9.39202 2.06743 10.3666C2.4711 11.3411 3.15469 12.1741 4.03175 12.7601C4.90881 13.3461 5.93996 13.6589 6.99479 13.6589C8.17923 13.6604 9.32976 13.2636 10.2615 12.5323L12.5215 14.7989C12.5834 14.8614 12.6572 14.911 12.7384 14.9448C12.8196 14.9787 12.9068 14.9961 12.9948 14.9961C13.0828 14.9961 13.1699 14.9787 13.2512 14.9448C13.3324 14.911 13.4061 14.8614 13.4681 14.7989C13.5306 14.7369 13.5802 14.6632 13.6141 14.582C13.6479 14.5007 13.6653 14.4136 13.6653 14.3256C13.6653 14.2376 13.6479 14.1504 13.6141 14.0692C13.5802 13.988 13.5306 13.9142 13.4681 13.8523ZM2.99479 8.32558C2.99479 7.53446 3.22939 6.7611 3.66891 6.1033C4.10844 5.44551 4.73315 4.93282 5.46406 4.63007C6.19496 4.32732 6.99923 4.2481 7.77515 4.40244C8.55107 4.55678 9.26381 4.93775 9.82322 5.49716C10.3826 6.05657 10.7636 6.7693 10.9179 7.54522C11.0723 8.32115 10.9931 9.12541 10.6903 9.85632C10.3876 10.5872 9.87487 11.2119 9.21707 11.6515C8.55927 12.091 7.78592 12.3256 6.99479 12.3256C5.93392 12.3256 4.91651 11.9042 4.16636 11.154C3.41622 10.4039 2.99479 9.38645 2.99479 8.32558Z" fill="#FAFAFA"/>
</svg>
