<svg width="16" height="16" viewBox="0 0 16 16" fill="none" xmlns="http://www.w3.org/2000/svg">
<g id="Icon">
<path id="Subtract" fill-rule="evenodd" clip-rule="evenodd" d="M12.3281 0.335216C12.1493 -0.111739 11.5166 -0.111739 11.3378 0.335216C11.2056 0.665791 10.7927 0.776415 10.5129 0.556251C10.1346 0.258578 9.58664 0.574922 9.65528 1.0514C9.70604 1.4038 9.40381 1.70604 9.0514 1.65528C8.57492 1.58664 8.25858 2.13457 8.55625 2.51289C8.77642 2.79271 8.66579 3.20556 8.33522 3.33781C7.88826 3.51661 7.88826 4.1493 8.33522 4.3281C8.66579 4.46034 8.77641 4.8732 8.55625 5.15301C8.25858 5.53133 8.57492 6.07926 9.0514 6.01063C9.4038 5.95987 9.70604 6.2621 9.65528 6.61451C9.58664 7.09098 10.1346 7.40732 10.5129 7.10965C10.7927 6.88949 11.2056 7.00011 11.3378 7.33069C11.5166 7.77764 12.1493 7.77764 12.3281 7.33069C12.4603 7.00011 12.8732 6.88949 13.153 7.10965C13.5313 7.40732 14.0793 7.09098 14.0106 6.61451C13.9599 6.2621 14.2621 5.95987 14.6145 6.01063C15.091 6.07926 15.4073 5.53133 15.1097 5.15301C14.8895 4.8732 15.0001 4.46034 15.3307 4.3281C15.7776 4.1493 15.7776 3.51661 15.3307 3.33781C15.0001 3.20556 14.8895 2.79271 15.1097 2.51289C15.4073 2.13457 15.091 1.58664 14.6145 1.65528C14.2621 1.70604 13.9599 1.4038 14.0106 1.0514C14.0793 0.574922 13.5313 0.258578 13.153 0.556251C12.8732 0.776415 12.4603 0.665791 12.3281 0.335216ZM11.833 5.86243C12.9538 5.86243 13.8625 4.9538 13.8625 3.83295C13.8625 2.7121 12.9538 1.80347 11.833 1.80347C10.7121 1.80347 9.8035 2.7121 9.8035 3.83295C9.8035 4.9538 10.7121 5.86243 11.833 5.86243Z" fill="#FDFCFC"/>
<g id="Subtract_2">
<mask id="path-2-outside-1_717_715" maskUnits="userSpaceOnUse" x="0.373505" y="2.37343" width="14" height="14" fill="black">
<rect fill="white" x="0.373505" y="2.37343" width="14" height="14"/>
<path fill-rule="evenodd" clip-rule="evenodd" d="M7.95996 3.88356C7.68787 3.20339 6.72505 3.20339 6.45295 3.88356C6.2517 4.38662 5.62342 4.55497 5.1976 4.21993C4.62187 3.76693 3.78805 4.24834 3.89249 4.97343C3.96974 5.50973 3.5098 5.96966 2.97351 5.89241C2.24842 5.78797 1.76701 6.6218 2.22 7.19753C2.55505 7.62334 2.3867 8.25162 1.88363 8.45287C1.20346 8.72497 1.20346 9.68779 1.88363 9.95989C2.3867 10.1611 2.55505 10.7894 2.22 11.2152C1.76701 11.791 2.24842 12.6248 2.97351 12.5203C3.5098 12.4431 3.96974 12.903 3.89249 13.4393C3.78805 14.1644 4.62187 14.6458 5.1976 14.1928C5.62342 13.8578 6.2517 14.0261 6.45295 14.5292C6.72505 15.2094 7.68787 15.2094 7.95996 14.5292C8.16121 14.0261 8.78949 13.8578 9.21531 14.1928C9.79104 14.6458 10.6249 14.1644 10.5204 13.4393C10.4432 12.903 10.9031 12.4431 11.4394 12.5203C12.1645 12.6248 12.6459 11.791 12.1929 11.2152C11.8579 10.7894 12.0262 10.1611 12.5293 9.95989C13.2095 9.68779 13.2095 8.72497 12.5293 8.45287C12.0262 8.25162 11.8579 7.62334 12.1929 7.19753C12.6459 6.6218 12.1645 5.78797 11.4394 5.89241C10.9031 5.96966 10.4432 5.50973 10.5204 4.97343C10.6249 4.24834 9.79104 3.76693 9.21531 4.21993C8.78949 4.55497 8.16121 4.38662 7.95996 3.88356ZM7.24997 12.75C9.18297 12.75 10.75 11.183 10.75 9.24999C10.75 7.317 9.18297 5.74999 7.24997 5.74999C5.31697 5.74999 3.74997 7.317 3.74997 9.24999C3.74997 11.183 5.31697 12.75 7.24997 12.75Z"/>
</mask>
<path fill-rule="evenodd" clip-rule="evenodd" d="M7.95996 3.88356C7.68787 3.20339 6.72505 3.20339 6.45295 3.88356C6.2517 4.38662 5.62342 4.55497 5.1976 4.21993C4.62187 3.76693 3.78805 4.24834 3.89249 4.97343C3.96974 5.50973 3.5098 5.96966 2.97351 5.89241C2.24842 5.78797 1.76701 6.6218 2.22 7.19753C2.55505 7.62334 2.3867 8.25162 1.88363 8.45287C1.20346 8.72497 1.20346 9.68779 1.88363 9.95989C2.3867 10.1611 2.55505 10.7894 2.22 11.2152C1.76701 11.791 2.24842 12.6248 2.97351 12.5203C3.5098 12.4431 3.96974 12.903 3.89249 13.4393C3.78805 14.1644 4.62187 14.6458 5.1976 14.1928C5.62342 13.8578 6.2517 14.0261 6.45295 14.5292C6.72505 15.2094 7.68787 15.2094 7.95996 14.5292C8.16121 14.0261 8.78949 13.8578 9.21531 14.1928C9.79104 14.6458 10.6249 14.1644 10.5204 13.4393C10.4432 12.903 10.9031 12.4431 11.4394 12.5203C12.1645 12.6248 12.6459 11.791 12.1929 11.2152C11.8579 10.7894 12.0262 10.1611 12.5293 9.95989C13.2095 9.68779 13.2095 8.72497 12.5293 8.45287C12.0262 8.25162 11.8579 7.62334 12.1929 7.19753C12.6459 6.6218 12.1645 5.78797 11.4394 5.89241C10.9031 5.96966 10.4432 5.50973 10.5204 4.97343C10.6249 4.24834 9.79104 3.76693 9.21531 4.21993C8.78949 4.55497 8.16121 4.38662 7.95996 3.88356ZM7.24997 12.75C9.18297 12.75 10.75 11.183 10.75 9.24999C10.75 7.317 9.18297 5.74999 7.24997 5.74999C5.31697 5.74999 3.74997 7.317 3.74997 9.24999C3.74997 11.183 5.31697 12.75 7.24997 12.75Z" fill="#FDFCFC"/>
<path d="M6.45295 3.88356L5.98872 3.69784V3.69784L6.45295 3.88356ZM7.95996 3.88356L8.4242 3.69784V3.69784L7.95996 3.88356ZM5.1976 4.21993L5.50678 3.82698L5.50678 3.82698L5.1976 4.21993ZM3.89249 4.97343L4.38738 4.90215V4.90215L3.89249 4.97343ZM2.97351 5.89241L3.04479 5.39752H3.04479L2.97351 5.89241ZM2.22 7.19753L2.61295 6.88835H2.61295L2.22 7.19753ZM1.88363 8.45287L2.06935 8.9171H2.06935L1.88363 8.45287ZM1.88363 9.95989L2.06935 9.49566H2.06935L1.88363 9.95989ZM2.22 11.2152L1.82706 10.9061H1.82706L2.22 11.2152ZM2.97351 12.5203L2.90223 12.0255H2.90223L2.97351 12.5203ZM3.89249 13.4393L4.38738 13.5106V13.5106L3.89249 13.4393ZM5.1976 14.1928L4.88842 13.7999L4.88842 13.7999L5.1976 14.1928ZM6.45295 14.5292L5.98872 14.7149L6.45295 14.5292ZM7.95996 14.5292L8.4242 14.7149L7.95996 14.5292ZM9.21531 14.1928L8.90613 14.5858L9.21531 14.1928ZM10.5204 13.4393L11.0153 13.368L10.5204 13.4393ZM11.4394 12.5203L11.5107 12.0255H11.5107L11.4394 12.5203ZM12.1929 11.2152L11.8 11.5244L12.1929 11.2152ZM12.5293 9.95989L12.715 10.4241L12.5293 9.95989ZM12.5293 8.45287L12.3436 8.9171L12.5293 8.45287ZM12.1929 7.19753L11.8 6.88835L12.1929 7.19753ZM11.4394 5.89241L11.3681 5.39752L11.4394 5.89241ZM10.5204 4.97343L11.0153 5.04472L10.5204 4.97343ZM9.21531 4.21993L8.90613 3.82698V3.82698L9.21531 4.21993ZM6.91718 4.06927C7.02164 3.80815 7.39127 3.80815 7.49573 4.06927L8.4242 3.69784C7.98446 2.59862 6.42845 2.59862 5.98872 3.69784L6.91718 4.06927ZM4.88842 4.61287C5.57659 5.15434 6.59194 4.88227 6.91718 4.06927L5.98872 3.69784C5.91146 3.89097 5.67026 3.9556 5.50678 3.82698L4.88842 4.61287ZM4.38738 4.90215C4.34729 4.62378 4.6674 4.43897 4.88842 4.61287L5.50678 3.82698C4.57635 3.09489 3.22881 3.8729 3.3976 5.04472L4.38738 4.90215ZM2.90223 6.3873C3.76892 6.51214 4.51222 5.76885 4.38738 4.90215L3.3976 5.04472C3.42725 5.2506 3.25068 5.42717 3.04479 5.39752L2.90223 6.3873ZM2.61295 6.88835C2.43904 6.66732 2.62386 6.34721 2.90223 6.3873L3.04479 5.39752C1.87297 5.22873 1.09497 6.57627 1.82706 7.50671L2.61295 6.88835ZM2.06935 8.9171C2.88235 8.59187 3.15441 7.57651 2.61295 6.88835L1.82706 7.50671C1.95568 7.67018 1.89105 7.91138 1.69792 7.98864L2.06935 8.9171ZM2.06935 9.49566C1.80822 9.3912 1.80822 9.02156 2.06935 8.9171L1.69792 7.98864C0.598699 8.42838 0.598699 9.98438 1.69792 10.4241L2.06935 9.49566ZM2.61295 11.5244C3.15441 10.8363 2.88235 9.82089 2.06935 9.49566L1.69792 10.4241C1.89105 10.5014 1.95568 10.7426 1.82706 10.9061L2.61295 11.5244ZM2.90223 12.0255C2.62386 12.0656 2.43904 11.7454 2.61295 11.5244L1.82706 10.9061C1.09497 11.8365 1.87297 13.184 3.0448 13.0152L2.90223 12.0255ZM4.38738 13.5106C4.51222 12.6439 3.76893 11.9006 2.90223 12.0255L3.04479 13.0152C3.25068 12.9856 3.42725 13.1622 3.3976 13.368L4.38738 13.5106ZM4.88842 13.7999C4.6674 13.9738 4.34729 13.789 4.38738 13.5106L3.3976 13.368C3.22881 14.5399 4.57635 15.3179 5.50678 14.5858L4.88842 13.7999ZM6.91718 14.3435C6.59194 13.5305 5.57658 13.2584 4.88842 13.7999L5.50678 14.5858C5.67026 14.4572 5.91146 14.5218 5.98872 14.7149L6.91718 14.3435ZM7.49573 14.3435C7.39127 14.6046 7.02164 14.6046 6.91718 14.3435L5.98872 14.7149C6.42845 15.8141 7.98446 15.8141 8.4242 14.7149L7.49573 14.3435ZM9.52449 13.7999C8.83633 13.2584 7.82097 13.5305 7.49573 14.3435L8.4242 14.7149C8.50146 14.5218 8.74266 14.4572 8.90613 14.5858L9.52449 13.7999ZM10.0255 13.5106C10.0656 13.789 9.74552 13.9738 9.52449 13.7999L8.90613 14.5858C9.83657 15.3179 11.1841 14.5399 11.0153 13.368L10.0255 13.5106ZM11.5107 12.0255C10.644 11.9006 9.90069 12.6439 10.0255 13.5106L11.0153 13.368C10.9857 13.1622 11.1622 12.9856 11.3681 13.0152L11.5107 12.0255ZM11.8 11.5244C11.9739 11.7454 11.7891 12.0656 11.5107 12.0255L11.3681 13.0152C12.5399 13.184 13.3179 11.8365 12.5859 10.9061L11.8 11.5244ZM12.3436 9.49566C11.5306 9.82089 11.2585 10.8363 11.8 11.5244L12.5859 10.9061C12.4572 10.7426 12.5219 10.5014 12.715 10.4241L12.3436 9.49566ZM12.3436 8.9171C12.6047 9.02156 12.6047 9.3912 12.3436 9.49566L12.715 10.4241C13.8142 9.98438 13.8142 8.42838 12.715 7.98864L12.3436 8.9171ZM11.8 6.88835C11.2585 7.57651 11.5306 8.59187 12.3436 8.9171L12.715 7.98864C12.5219 7.91138 12.4572 7.67018 12.5859 7.5067L11.8 6.88835ZM11.5107 6.3873C11.7891 6.34721 11.9739 6.66732 11.8 6.88835L12.5859 7.5067C13.3179 6.57627 12.5399 5.22873 11.3681 5.39752L11.5107 6.3873ZM10.0255 4.90215C9.90069 5.76885 10.644 6.51214 11.5107 6.3873L11.3681 5.39752C11.1622 5.42717 10.9857 5.2506 11.0153 5.04472L10.0255 4.90215ZM9.52449 4.61287C9.74552 4.43897 10.0656 4.62378 10.0255 4.90215L11.0153 5.04472C11.1841 3.8729 9.83657 3.09489 8.90613 3.82698L9.52449 4.61287ZM7.49573 4.06927C7.82097 4.88227 8.83633 5.15434 9.52449 4.61287L8.90613 3.82698C8.74266 3.9556 8.50146 3.89098 8.4242 3.69784L7.49573 4.06927ZM10.25 9.24999C10.25 10.9068 8.90682 12.25 7.24997 12.25V13.25C9.45911 13.25 11.25 11.4591 11.25 9.24999H10.25ZM7.24997 6.24999C8.90682 6.24999 10.25 7.59314 10.25 9.24999H11.25C11.25 7.04085 9.45911 5.24999 7.24997 5.24999V6.24999ZM4.24997 9.24999C4.24997 7.59314 5.59312 6.24999 7.24997 6.24999V5.24999C5.04083 5.24999 3.24997 7.04085 3.24997 9.24999H4.24997ZM7.24997 12.25C5.59312 12.25 4.24997 10.9068 4.24997 9.24999H3.24997C3.24997 11.4591 5.04083 13.25 7.24997 13.25V12.25Z" fill="black" mask="url(#path-2-outside-1_717_715)"/>
</g>
</g>
</svg>
