<?xml version="1.0" encoding="UTF-8" standalone="no"?>
<!DOCTYPE svg PUBLIC "-//W3C//DTD SVG 1.1//EN" "http://www.w3.org/Graphics/SVG/1.1/DTD/svg11.dtd">
<svg width="100%" height="100%" viewBox="0 0 983 983" version="1.1" style="fill-rule:evenodd;clip-rule:evenodd;stroke-linejoin:round;stroke-miterlimit:2;">
    <g transform="matrix(1,0,0,1,-8.59377,-8.59377)">
        <g>
            <g transform="matrix(1.50334,0,0,1.50334,-278.858,-270.862)">
                <path d="M518.085,185.89C337.677,185.89 191.209,332.358 191.209,512.766C191.209,693.174 337.677,839.642 518.085,839.642C698.493,839.642 844.961,693.174 844.961,512.766C844.961,332.358 698.493,185.89 518.085,185.89ZM518.085,252.408C661.78,252.408 778.443,369.071 778.443,512.766C778.443,656.461 661.78,773.124 518.085,773.124C374.39,773.124 257.727,656.461 257.727,512.766C257.727,369.071 374.39,252.408 518.085,252.408Z" style="fill:white;"/>
            </g>
            <path d="M452.344,500.189L452.344,500.1L452.344,142.523C452.344,130.145 463.021,120.095 476.172,120.095L523.828,120.095C536.979,120.095 547.656,130.145 547.656,142.523L547.656,417.398L696.843,331.265C704.533,326.826 716.114,332.468 722.69,343.857L746.518,385.128C753.094,396.518 752.189,409.369 744.5,413.808L525.669,540.15C518.257,544.901 509.448,547.656 500,547.656C473.761,547.656 452.446,526.405 452.344,500.189Z" style="fill:white;"/>
        </g>
    </g>
</svg>
