<svg width="16" height="16" viewBox="0 0 16 16" fill="none" xmlns="http://www.w3.org/2000/svg">
<path d="M2.00006 10.0031C1.99962 9.87505 2.02788 9.74854 2.08276 9.63285C2.13764 9.51717 2.21774 9.41525 2.31717 9.33458L7.45954 5.19497C7.6129 5.06891 7.80526 5 8.00378 5C8.2023 5 8.39466 5.06891 8.54801 5.19497L13.6904 9.48028C13.8654 9.62576 13.9755 9.8348 13.9964 10.0614C14.0173 10.2881 13.9473 10.5137 13.8018 10.6887C13.6563 10.8638 13.4473 10.9738 13.2206 10.9947C12.994 11.0156 12.7684 10.9456 12.5933 10.8002L7.99949 6.96909L3.40564 10.6716C3.27984 10.7764 3.12664 10.843 2.96419 10.8634C2.80173 10.8839 2.63682 10.8574 2.48895 10.7871C2.34108 10.7168 2.21645 10.6055 2.12981 10.4666C2.04317 10.3277 1.99815 10.1668 2.00006 10.0031V10.0031Z" fill="#FAFAFA"/>
</svg>
