<?xml version="1.0" encoding="UTF-8" standalone="no"?>
<!DOCTYPE svg PUBLIC "-//W3C//DTD SVG 1.1//EN" "http://www.w3.org/Graphics/SVG/1.1/DTD/svg11.dtd">
<svg class="icons__visited-icon" width="100%" height="100%" viewBox="0 0 1000 1000" version="1.1" style="fill-rule:evenodd;clip-rule:evenodd;stroke-linejoin:round;stroke-miterlimit:2;">
    <path d="M1000,250C1000,112.021 887.979,0 750,0L250,0C112.021,0 0,112.021 0,250L0,750C0,887.979 112.021,1000 250,1000L750,1000C887.979,1000 1000,887.979 1000,750L1000,250ZM399.036,625.195L221.138,499.84C198.563,483.933 167.32,489.346 151.413,511.921L93.768,593.728C77.861,616.303 83.274,647.546 105.849,663.453L394.607,866.925C397.361,868.865 400.244,870.489 403.21,871.801L407.015,874.482C429.59,890.39 460.833,884.977 476.741,862.401L906.232,252.888C922.139,230.313 916.726,199.07 894.151,183.162L812.344,125.518C789.769,109.61 758.526,115.023 742.619,137.599L399.036,625.195Z" style="fill:rgb(217,217,217);"/>
</svg>
