<?xml version="1.0" encoding="UTF-8" standalone="no"?>
<!DOCTYPE svg PUBLIC "-//W3C//DTD SVG 1.1//EN" "http://www.w3.org/Graphics/SVG/1.1/DTD/svg11.dtd">
<svg class="icons__web-icon" width="100%" height="100%" viewBox="0 0 447 447" version="1.1" style="fill-rule:evenodd;clip-rule:evenodd;stroke-linejoin:round;stroke-miterlimit:2;">
    <path d="M231.489,446.735C265.671,441.879 295.637,406.203 314.493,353.515C287.235,347.411 259.418,344.134 231.489,343.744L231.489,446.735Z" style="fill:rgb(217,217,217);fill-rule:nonzero;"/>
    <path d="M286.099,438.356C288.12,437.771 290.133,437.182 292.13,436.535C293.815,435.993 295.477,435.407 297.138,434.826C299.104,434.147 301.063,433.449 303.013,432.708C304.675,432.076 306.321,431.405 307.971,430.734C309.874,429.935 311.774,429.139 313.654,428.339C315.296,427.618 316.927,426.861 318.557,426.1C320.402,425.23 322.24,424.345 324.061,423.424C325.661,422.609 327.256,421.778 328.855,420.924C330.646,419.964 332.425,418.985 334.192,417.979C335.791,417.074 337.332,416.165 338.888,415.229C340.62,414.164 342.344,413.099 344.057,412.034C345.59,411.059 347.119,410.068 348.628,409.046C350.313,407.911 351.975,406.729 353.629,405.547C355.115,404.482 356.593,403.421 358.045,402.353C359.644,401.12 361.282,399.844 362.885,398.565C364.309,397.43 365.729,396.303 367.129,395.136C368.725,393.81 370.254,392.437 371.802,391.064C373.16,389.859 374.525,388.665 375.851,387.428C377.377,386.005 378.863,384.53 380.349,383.067C381.636,381.796 382.939,380.544 384.199,379.241C384.433,378.999 384.655,378.738 384.897,378.488C367.473,369.489 349.12,362.425 330.158,357.424C320.297,388.872 302.748,417.37 279.101,440.33C279.749,440.162 280.397,440.026 281.044,439.858C282.753,439.378 284.43,438.852 286.099,438.356Z" style="fill:rgb(217,217,217);fill-rule:nonzero;"/>
    <path d="M447.001,231.672L351.214,231.672C350.852,269.072 345.426,306.25 335.085,342.195C356.172,347.828 376.522,355.926 395.714,366.322C427.224,328.344 445.261,280.993 447.001,231.672Z" style="fill:rgb(217,217,217);fill-rule:nonzero;"/>
    <path d="M231.489,215.695L335.237,215.695C334.831,179.617 329.538,143.761 319.509,109.103C290.62,115.691 261.115,119.21 231.489,119.6L231.489,215.695Z" style="fill:rgb(217,217,217);fill-rule:nonzero;"/>
    <path d="M231.489,0.632L231.489,103.623C259.418,103.229 287.235,99.956 314.493,93.851C295.637,41.164 265.671,5.488 231.489,0.632Z" style="fill:rgb(217,217,217);fill-rule:nonzero;"/>
    <path d="M231.489,327.767C261.115,328.161 290.62,331.679 319.509,338.267C329.538,303.609 334.831,267.75 335.237,231.672L231.489,231.672L231.489,327.767Z" style="fill:rgb(217,217,217);fill-rule:nonzero;"/>
    <path d="M395.714,81.045C376.522,91.441 356.172,99.539 335.085,105.171C345.426,141.116 350.852,178.294 351.214,215.695L447.001,215.695C445.257,166.378 427.22,119.027 395.714,81.045Z" style="fill:rgb(217,217,217);fill-rule:nonzero;"/>
    <path d="M384.921,68.926C384.687,68.688 384.464,68.43 384.234,68.184C382.97,66.882 381.66,65.626 380.372,64.358C378.89,62.895 377.412,61.417 375.883,59.997C374.56,58.764 373.191,57.598 371.834,56.369C370.285,54.996 368.736,53.611 367.145,52.285C365.764,51.119 364.348,50.003 362.944,48.884C361.345,47.589 359.706,46.301 358.06,45.065C356.617,43.976 355.154,42.923 353.684,41.87C352.014,40.669 350.337,39.471 348.636,38.328C347.142,37.322 345.625,36.339 344.107,35.375C342.379,34.264 340.655,33.175 338.896,32.122C337.355,31.198 335.799,30.285 334.238,29.399C332.452,28.377 330.661,27.387 328.855,26.419C327.256,25.62 325.661,24.75 324.061,23.95C322.224,23.022 320.371,22.128 318.472,21.251C316.872,20.49 315.25,19.749 313.603,19.027C311.712,18.189 309.8,17.432 307.893,16.632C306.247,15.961 304.608,15.298 302.947,14.666C301.008,13.925 299.042,13.231 297.076,12.552C295.414,11.967 293.753,11.386 292.068,10.84C290.07,10.192 288.073,9.603 286.021,9.01C284.36,8.523 282.69,8.027 281.009,7.583C280.365,7.407 279.71,7.271 279.062,7.103C302.709,30.063 320.254,58.557 330.119,90.009C349.1,85.008 367.48,77.94 384.921,68.926Z" style="fill:rgb(217,217,217);fill-rule:nonzero;"/>
    <path d="M0,215.695L95.786,215.695C96.149,178.294 101.575,141.116 111.912,105.171C90.829,99.542 70.478,91.445 51.287,81.045C19.777,119.023 1.74,166.378 0,215.695Z" style="fill:rgb(217,217,217);fill-rule:nonzero;"/>
    <path d="M215.512,446.735L215.512,343.744C187.582,344.138 159.766,347.411 132.508,353.515C151.36,406.203 181.33,441.879 215.512,446.735Z" style="fill:rgb(217,217,217);fill-rule:nonzero;"/>
    <path d="M215.512,231.672L111.764,231.672C112.17,267.75 117.459,303.609 127.492,338.267C156.38,331.675 185.882,328.157 215.512,327.767L215.512,231.672Z" style="fill:rgb(217,217,217);fill-rule:nonzero;"/>
    <path d="M215.512,0.632C181.33,5.488 151.36,41.164 132.508,93.851C159.766,99.96 187.582,103.233 215.512,103.623L215.512,0.632Z" style="fill:rgb(217,217,217);fill-rule:nonzero;"/>
    <path d="M215.512,119.6C185.886,119.21 156.38,115.691 127.492,109.103C117.459,143.761 112.17,179.617 111.764,215.695L215.512,215.695L215.512,119.6Z" style="fill:rgb(217,217,217);fill-rule:nonzero;"/>
    <path d="M167.876,7.095C167.228,7.263 166.581,7.399 165.933,7.567C164.24,8.02 162.571,8.523 160.886,9.01C158.881,9.595 156.891,10.184 154.879,10.824C153.182,11.374 151.512,11.959 149.843,12.54C147.889,13.231 145.93,13.917 143.996,14.651C142.326,15.29 140.68,15.954 139.026,16.632C137.126,17.432 135.223,18.232 133.347,19.027C131.701,19.749 130.074,20.506 128.443,21.266C126.598,22.136 124.761,23.022 122.939,23.942C121.34,24.758 119.741,25.592 118.145,26.443C116.355,27.402 114.58,28.385 112.817,29.392C111.218,30.285 109.646,31.202 108.105,32.138C106.369,33.183 104.653,34.264 102.944,35.332C101.407,36.315 99.882,37.306 98.373,38.328C96.688,39.463 95.026,40.645 93.372,41.827C91.886,42.892 90.407,43.953 88.952,45.026C87.318,46.255 85.758,47.534 84.112,48.809C82.692,49.945 81.26,51.072 79.871,52.246C78.272,53.564 76.755,54.93 75.214,56.295C73.849,57.512 72.472,58.694 71.138,59.954C69.62,61.37 68.142,62.84 66.66,64.299C65.372,65.571 64.062,66.827 62.798,68.134C62.568,68.376 62.345,68.641 62.104,68.887C79.524,77.889 97.881,84.954 116.843,89.954C126.704,58.522 144.241,30.043 167.876,7.095Z" style="fill:rgb(217,217,217);fill-rule:nonzero;"/>
    <path d="M66.625,383.009C68.111,384.472 69.589,385.95 71.114,387.374C72.441,388.603 73.806,389.769 75.167,390.998C76.716,392.375 78.264,393.755 79.856,395.082C81.237,396.24 82.645,397.36 84.057,398.483C85.656,399.778 87.252,401.065 88.945,402.31C90.384,403.39 91.847,404.436 93.309,405.508C94.979,406.706 96.664,407.903 98.365,409.054C99.859,410.06 101.376,411.043 102.894,412.011C104.622,413.119 106.346,414.207 108.105,415.26C109.646,416.189 111.202,417.097 112.762,417.987C114.549,419.009 116.339,420 118.145,420.963C119.741,421.763 121.34,422.633 122.939,423.432C124.777,424.361 126.63,425.254 128.529,426.135C130.129,426.888 131.751,427.629 133.397,428.355C135.289,429.194 137.197,429.95 139.108,430.75C140.754,431.421 142.392,432.084 144.054,432.716C145.993,433.461 147.959,434.155 149.925,434.834C151.586,435.415 153.248,436 154.933,436.543C156.93,437.19 158.928,437.783 160.979,438.372C162.641,438.86 164.311,439.355 165.988,439.804C166.635,439.979 167.291,440.116 167.938,440.283C144.292,417.32 126.747,388.825 116.882,357.373C97.92,362.378 79.563,369.442 62.143,378.449C62.377,378.687 62.599,378.944 62.833,379.19C64.031,380.485 65.322,381.741 66.625,383.009Z" style="fill:rgb(217,217,217);fill-rule:nonzero;"/>
    <path d="M51.287,366.322C70.478,355.926 90.829,347.828 111.912,342.195C101.575,306.25 96.149,269.072 95.786,231.672L0,231.672C1.744,280.989 19.777,328.34 51.287,366.322Z" style="fill:rgb(217,217,217);fill-rule:nonzero;"/>
</svg>
