<?xml version="1.0" encoding="UTF-8" standalone="no"?>
<svg width="100%" height="100%" viewBox="0 0 711 245" version="1.1" style="fill-rule:evenodd;clip-rule:evenodd;stroke-linejoin:round;stroke-miterlimit:2;">
    <g transform="matrix(1,0,0,1,-41.265,-14.43)">
        <g id="_-dote" transform="matrix(1,0,0,1,0,24)">
            <g transform="matrix(290,0,0,290,27.635,214.6)">
                <path d="M0.047,0.046L0.329,-0.773L0.403,-0.748L0.121,0.071L0.047,0.046Z" style="fill:white;fill-rule:nonzero;"/>
            </g>
            <g transform="matrix(290,0,0,290,147.985,214.6)">
                <path d="M0.277,0.012C0.245,0.012 0.215,0.006 0.187,-0.007C0.158,-0.02 0.134,-0.038 0.113,-0.061C0.092,-0.084 0.075,-0.113 0.063,-0.146C0.051,-0.179 0.045,-0.216 0.045,-0.257C0.045,-0.296 0.051,-0.333 0.064,-0.367C0.076,-0.4 0.093,-0.429 0.114,-0.454C0.135,-0.478 0.159,-0.497 0.187,-0.511C0.215,-0.525 0.245,-0.532 0.276,-0.532C0.311,-0.532 0.341,-0.525 0.366,-0.511C0.391,-0.497 0.41,-0.483 0.424,-0.468L0.424,-0.74L0.514,-0.74L0.514,-0.126C0.514,-0.101 0.52,-0.084 0.533,-0.077C0.545,-0.069 0.558,-0.065 0.573,-0.065L0.554,0.005C0.491,0.005 0.452,-0.02 0.438,-0.071C0.423,-0.05 0.402,-0.031 0.376,-0.014C0.35,0.003 0.317,0.012 0.277,0.012ZM0.297,-0.068C0.322,-0.068 0.345,-0.074 0.368,-0.086C0.39,-0.097 0.409,-0.112 0.424,-0.131L0.424,-0.389C0.411,-0.405 0.394,-0.42 0.372,-0.434C0.349,-0.447 0.324,-0.454 0.296,-0.454C0.272,-0.454 0.25,-0.449 0.231,-0.439C0.211,-0.429 0.194,-0.415 0.18,-0.398C0.166,-0.381 0.155,-0.36 0.148,-0.337C0.141,-0.313 0.137,-0.287 0.137,-0.26C0.137,-0.232 0.141,-0.206 0.149,-0.183C0.157,-0.16 0.168,-0.14 0.183,-0.123C0.197,-0.106 0.214,-0.092 0.234,-0.083C0.253,-0.073 0.274,-0.068 0.297,-0.068Z" style="fill:rgb(255,0,153);fill-rule:nonzero;"/>
            </g>
            <g transform="matrix(290,0,0,290,322.855,214.6)">
                <path d="M0.466,-0.26C0.466,-0.286 0.462,-0.311 0.454,-0.334C0.445,-0.357 0.434,-0.378 0.419,-0.395C0.404,-0.412 0.386,-0.426 0.366,-0.437C0.345,-0.447 0.323,-0.452 0.299,-0.452C0.246,-0.452 0.205,-0.435 0.176,-0.4C0.147,-0.365 0.132,-0.319 0.132,-0.262C0.132,-0.236 0.136,-0.211 0.145,-0.188C0.153,-0.164 0.165,-0.143 0.18,-0.126C0.195,-0.108 0.212,-0.094 0.233,-0.084C0.253,-0.073 0.275,-0.068 0.299,-0.068C0.325,-0.068 0.348,-0.073 0.369,-0.082C0.39,-0.091 0.407,-0.105 0.422,-0.122C0.436,-0.139 0.447,-0.159 0.455,-0.182C0.462,-0.205 0.466,-0.231 0.466,-0.26ZM0.04,-0.26C0.04,-0.302 0.047,-0.34 0.06,-0.374C0.073,-0.407 0.092,-0.436 0.115,-0.459C0.138,-0.482 0.165,-0.5 0.197,-0.513C0.228,-0.526 0.262,-0.532 0.299,-0.532C0.335,-0.532 0.369,-0.526 0.401,-0.513C0.432,-0.5 0.46,-0.482 0.483,-0.459C0.506,-0.436 0.525,-0.407 0.538,-0.374C0.551,-0.341 0.558,-0.303 0.558,-0.262C0.558,-0.221 0.552,-0.183 0.539,-0.15C0.526,-0.116 0.507,-0.087 0.484,-0.063C0.461,-0.039 0.433,-0.021 0.402,-0.008C0.37,0.005 0.336,0.012 0.299,0.012C0.262,0.012 0.227,0.005 0.196,-0.008C0.164,-0.021 0.137,-0.04 0.114,-0.064C0.091,-0.088 0.073,-0.117 0.059,-0.15C0.047,-0.183 0.04,-0.22 0.04,-0.26Z" style="fill:white;fill-rule:nonzero;"/>
            </g>
            <g transform="matrix(290,0,0,290,496.275,214.6)">
                <path d="M0.121,-0.665L0.19,-0.665L0.19,-0.501L0.334,-0.501L0.334,-0.423L0.19,-0.423L0.19,-0.172C0.19,-0.153 0.192,-0.136 0.197,-0.123C0.201,-0.11 0.207,-0.099 0.214,-0.091C0.221,-0.083 0.23,-0.077 0.241,-0.074C0.251,-0.07 0.262,-0.068 0.273,-0.068C0.29,-0.068 0.305,-0.071 0.32,-0.076C0.335,-0.081 0.349,-0.088 0.362,-0.095L0.387,-0.023C0.374,-0.015 0.356,-0.007 0.333,0C0.31,0.008 0.287,0.012 0.262,0.012C0.212,0.012 0.172,-0.004 0.143,-0.037C0.115,-0.07 0.1,-0.117 0.1,-0.179L0.1,-0.423L0.01,-0.423L0.01,-0.501L0.102,-0.501L0.121,-0.665Z" style="fill:white;fill-rule:nonzero;"/>
            </g>
            <g transform="matrix(290,0,0,290,605.605,214.6)">
                <path d="M0.137,-0.223C0.143,-0.174 0.16,-0.136 0.188,-0.109C0.216,-0.082 0.253,-0.068 0.299,-0.068C0.329,-0.068 0.356,-0.071 0.38,-0.078C0.404,-0.084 0.427,-0.092 0.449,-0.102L0.47,-0.025C0.446,-0.014 0.419,-0.005 0.389,0.002C0.359,0.009 0.325,0.012 0.288,0.012C0.251,0.012 0.217,0.006 0.187,-0.007C0.157,-0.019 0.132,-0.037 0.111,-0.059C0.09,-0.083 0.073,-0.111 0.062,-0.145C0.051,-0.178 0.045,-0.217 0.045,-0.26C0.045,-0.299 0.051,-0.335 0.062,-0.368C0.073,-0.401 0.089,-0.43 0.11,-0.455C0.131,-0.479 0.155,-0.498 0.184,-0.511C0.213,-0.525 0.245,-0.532 0.28,-0.532C0.317,-0.532 0.35,-0.526 0.378,-0.513C0.406,-0.5 0.429,-0.483 0.448,-0.461C0.467,-0.439 0.481,-0.413 0.49,-0.384C0.499,-0.355 0.504,-0.324 0.504,-0.291C0.504,-0.268 0.503,-0.245 0.501,-0.223L0.137,-0.223ZM0.278,-0.454C0.239,-0.454 0.206,-0.441 0.182,-0.414C0.157,-0.387 0.141,-0.348 0.136,-0.296L0.421,-0.296C0.421,-0.347 0.408,-0.386 0.383,-0.413C0.358,-0.44 0.323,-0.454 0.278,-0.454Z" style="fill:white;fill-rule:nonzero;"/>
            </g>
        </g>
    </g>
</svg>
