<?xml version="1.0" encoding="UTF-8" standalone="no"?>
<!DOCTYPE svg PUBLIC "-//W3C//DTD SVG 1.1//EN" "http://www.w3.org/Graphics/SVG/1.1/DTD/svg11.dtd">
<svg width="100%" height="100%" viewBox="0 0 1000 1000" version="1.1" xmlns="http://www.w3.org/2000/svg" xmlns:xlink="http://www.w3.org/1999/xlink" xml:space="preserve" xmlns:serif="http://www.serif.com/" style="fill-rule:evenodd;clip-rule:evenodd;stroke-linejoin:round;stroke-miterlimit:2;">
    <rect id="Artboard1" x="0" y="0" width="1000" height="1000" style="fill:none;"/>
    <g id="Artboard11" serif:id="Artboard1">
        <g transform="matrix(2.01971,0,0,2.01971,-483.427,-311.625)">
            <path d="M474.588,181.833C476.094,176.427 481.146,172.672 486.915,172.672C492.683,172.672 497.735,176.427 499.241,181.833L545.208,346.846L721.066,338.295C726.827,338.015 732.066,341.52 733.849,346.846C735.631,352.172 733.514,357.997 728.684,361.057L581.235,454.491L643.954,614.219C646.009,619.452 644.195,625.372 639.528,628.664C634.862,631.956 628.501,631.801 624.01,628.287L486.915,521.019L349.819,628.287C345.328,631.801 338.968,631.956 334.301,628.664C329.634,625.372 327.82,619.452 329.875,614.219L392.594,454.491L245.145,361.057C240.315,357.997 238.198,352.172 239.981,346.846C241.763,341.52 247.002,338.015 252.764,338.295L428.621,346.846L474.588,181.833Z" style="fill:rgb(242,175,13);"/>
            <path d="M474.588,181.833C476.094,176.427 481.146,172.672 486.915,172.672C492.683,172.672 497.735,176.427 499.241,181.833L545.208,346.846L721.066,338.295C726.827,338.015 732.066,341.52 733.849,346.846C735.631,352.172 733.514,357.997 728.684,361.057L581.235,454.491L643.954,614.219C646.009,619.452 644.195,625.372 639.528,628.664C634.862,631.956 628.501,631.801 624.01,628.287L486.915,521.019L349.819,628.287C345.328,631.801 338.968,631.956 334.301,628.664C329.634,625.372 327.82,619.452 329.875,614.219L392.594,454.491L245.145,361.057C240.315,357.997 238.198,352.172 239.981,346.846C241.763,341.52 247.002,338.015 252.764,338.295L428.621,346.846L474.588,181.833ZM479.358,183.161C480.276,179.863 483.396,177.623 486.915,177.623C490.434,177.623 493.553,179.863 494.471,183.161C494.471,183.161 540.438,348.174 540.438,348.174C541.059,350.402 543.139,351.903 545.448,351.791L721.306,343.241C724.828,343.069 728.064,345.161 729.153,348.417C730.216,351.592 728.914,355.05 726.034,356.875C726.034,356.875 578.585,450.308 578.585,450.308C576.581,451.578 575.759,454.092 576.626,456.3L639.346,616.029C640.569,619.144 639.453,622.658 636.674,624.618C633.783,626.657 629.843,626.565 627.061,624.388C627.061,624.388 489.966,517.12 489.966,517.12C488.173,515.717 485.656,515.717 483.864,517.12L346.768,624.388C343.986,626.565 340.046,626.657 337.155,624.618C334.376,622.658 333.26,619.144 334.483,616.029C334.483,616.029 397.203,456.3 397.203,456.3C398.07,454.092 397.249,451.578 395.244,450.308L247.795,356.875C244.916,355.05 243.613,351.592 244.676,348.417C245.765,345.161 249.001,343.069 252.523,343.241C252.523,343.241 428.381,351.791 428.381,351.791C430.691,351.903 432.77,350.402 433.391,348.174C433.391,348.174 479.358,183.161 479.358,183.161Z" style="fill:rgb(242,175,13);"/>
        </g>
    </g>
</svg>
